{
  "source": "C:\\Users\\Peter\\Desktop\\stuff\\MIUN\\quantitative_research\\video_compression\\videos\\UVG\\Beauty_1920x1080_120fps_420_8bit_YUV.y4m",
  "output": "C:\\Users\\Peter\\Desktop\\stuff\\MIUN\\quantitative_research\\video_compression\\compressed_videos\\UVG\\av1\\1.5\\Beauty_1920x1080_120fps_420_8bit_YUV_av1.mkv",
  "codec": "av1",
  "ok": "[yuv4mpegpipe @ 000002dfdf195380] Stream #0: not enough frames to estimate rate; consider increasing probesize\nInput #0, yuv4mpegpipe, from 'C:\\Users\\Peter\\Desktop\\stuff\\MIUN\\quantitative_research\\video_compression\\videos\\UVG\\Beauty_1920x1080_120fps_420_8bit_YUV.y4m':\n  Duration: 00:00:05.00, start: 0.000000, bitrate: 2985989 kb/s\n  Stream #0:0: Video: rawvideo (I420 / 0x30323449), yuv420p(progressive), 1920x1080, 120 fps, 120 tbr, 120 tbn\n[out#0/matroska @ 000002dfdf1990c0] Codec AVOption b:a (set bitrate (in bits/s)) has not been used for any stream. The most likely reason is either wrong type (e.g. a video option with no video streams) or that it is a private option of some decoder which was not actually used for any stream.\nStream mapping:\n  Stream #0:0 -> #0:0 (rawvideo (native) -> av1 (libsvtav1))\nPress [q] to stop, [?] for help\nSvt[info]: -------------------------------------------\nSvt[info]: SVT [version]:\tSVT-AV1 Encoder Lib v3.1.0-19-g6ecfe8ec\nSvt[info]: SVT [build]  :\tGCC 15.2.0\t 64 bit\nSvt[info]: LIB Build date: Aug 17 2025 11:37:13\nSvt[info]: -------------------------------------------\n[libsvtav1 @ 000002dfdf19c1c0] Specified chroma sample location center is unsupported on the AV1 bit stream level. Usage of a container that allows passing this information - such as Matroska - is recommended.\nSvt[info]: Level of Parallelism: 5\nSvt[info]: Number of PPCS 93\nSvt[info]: [asm level on system : up to avx2]\nSvt[info]: [asm level selected : up to avx2]\nSvt[info]: -------------------------------------------\nSvt[info]: SVT [config]: main profile\ttier (auto)\tlevel (auto)\nSvt[info]: SVT [config]: width / height / fps numerator / fps denominator \t\t: 1920 / 1080 / 120 / 1\nSvt[info]: SVT [config]: bit-depth / color format \t\t\t\t\t: 8 / YUV420\nSvt[info]: SVT [config]: preset / tune / pred struct \t\t\t\t\t: 4 / PSNR / random access\nSvt[info]: SVT [config]: gop size / mini-gop size / key-frame type \t\t\t: 641 / 16 / key frame\nSvt[info]: SVT [config]: BRC mode / target bitrate (kbps)\t\t\t\t: VBR / 1500 \nSvt[info]: SVT [config]: AQ mode / Variance Boost \t\t\t\t\t: 2 / 0\nSvt[info]: SVT [config]: sharpness / luminance-based QP bias \t\t\t\t: 0 / 0\nSvt[info]: SVT [config]: QP scale compress strength \t\t\t\t\t: 0\nSvt[info]: -------------------------------------------\nOutput #0, matroska, to 'C:\\Users\\Peter\\Desktop\\stuff\\MIUN\\quantitative_research\\video_compression\\compressed_videos\\UVG\\av1\\1.5\\Beauty_1920x1080_120fps_420_8bit_YUV_av1.mkv':\n  Metadata:\n    encoder         : Lavf62.3.100\n  Stream #0:0: Video: av1 (AV01 / 0x31305641), yuv420p(tv, progressive), 1920x1080, q=2-31, 1500 kb/s, 120 fps, 1k tbn\n    Metadata:\n      encoder         : Lavc62.11.100 libsvtav1\n    Side data:\n      cpb: bitrate max/min/avg: 0/0/1500000 buffer size: 1500000 vbv_delay: N/A\nframe=    0 fps=0.0 q=0.0 size=       0KiB time=N/A bitrate=N/A speed=N/A elapsed=0:00:00.52    \nframe=    0 fps=0.0 q=0.0 size=       0KiB time=N/A bitrate=N/A speed=N/A elapsed=0:00:01.11    \nframe=    0 fps=0.0 q=0.0 size=       0KiB time=N/A bitrate=N/A speed=N/A elapsed=0:00:01.64    \nframe=    0 fps=0.0 q=0.0 size=       0KiB time=N/A bitrate=N/A speed=N/A elapsed=0:00:02.18    \nframe=    0 fps=0.0 q=0.0 size=       0KiB time=N/A bitrate=N/A speed=N/A elapsed=0:00:02.71    \nframe=    0 fps=0.0 q=0.0 size=       0KiB time=N/A bitrate=N/A speed=N/A elapsed=0:00:03.23    \nframe=    0 fps=0.0 q=0.0 size=       0KiB time=N/A bitrate=N/A speed=N/A elapsed=0:00:03.78    \nframe=    0 fps=0.0 q=0.0 size=       0KiB time=N/A bitrate=N/A speed=N/A elapsed=0:00:04.30    \nframe=    0 fps=0.0 q=0.0 size=       0KiB time=N/A bitrate=N/A speed=N/A elapsed=0:00:04.88    \nframe=    0 fps=0.0 q=0.0 size=       0KiB time=N/A bitrate=N/A speed=N/A elapsed=0:00:05.68    \nframe=    0 fps=0.0 q=0.0 size=       0KiB time=N/A bitrate=N/A speed=N/A elapsed=0:00:06.20    \nframe=    0 fps=0.0 q=0.0 size=       0KiB time=N/A bitrate=N/A speed=N/A elapsed=0:00:06.73    \nframe=    0 fps=0.0 q=0.0 size=       0KiB time=N/A bitrate=N/A speed=N/A elapsed=0:00:07.23    \nframe=    0 fps=0.0 q=0.0 size=       0KiB time=N/A bitrate=N/A speed=N/A elapsed=0:00:07.76    \nframe=    1 fps=0.1 q=43.0 size=       1KiB time=00:00:00.00 bitrate=N/A speed=   0x elapsed=0:00:08.28    \nframe=    1 fps=0.1 q=43.0 size=       1KiB time=00:00:00.00 bitrate=N/A speed=   0x elapsed=0:00:08.78    \nframe=    3 fps=0.3 q=60.0 size=       1KiB time=00:00:00.01 bitrate= 268.8kbits/s speed=0.00179x elapsed=0:00:09.30    \nframe=    6 fps=0.6 q=59.0 size=       1KiB time=00:00:00.04 bitrate= 107.5kbits/s speed=0.00424x elapsed=0:00:09.82    \nframe=    8 fps=0.8 q=59.0 size=       1KiB time=00:00:00.05 bitrate=  76.8kbits/s speed=0.00565x elapsed=0:00:10.33    \nframe=   10 fps=0.9 q=57.0 size=       1KiB time=00:00:00.07 bitrate=  59.7kbits/s speed=0.00691x elapsed=0:00:10.84    \nframe=   12 fps=1.1 q=57.0 size=       1KiB time=00:00:00.09 bitrate=  48.9kbits/s speed=0.00806x elapsed=0:00:11.37    \nframe=   14 fps=1.2 q=56.0 size=       1KiB time=00:00:00.10 bitrate=  41.4kbits/s speed=0.00911x elapsed=0:00:11.88    \nframe=   17 fps=1.4 q=48.0 size=       1KiB time=00:00:00.13 bitrate=  33.6kbits/s speed=0.0107x elapsed=0:00:12.40    \nframe=   19 fps=1.5 q=55.0 size=       1KiB time=00:00:00.15 bitrate=  29.9kbits/s speed=0.0116x elapsed=0:00:12.90    \nframe=   21 fps=1.6 q=57.0 size=       1KiB time=00:00:00.16 bitrate=  26.9kbits/s speed=0.0124x elapsed=0:00:13.43    \nframe=   23 fps=1.6 q=54.0 size=       1KiB time=00:00:00.18 bitrate=  24.4kbits/s speed=0.0132x elapsed=0:00:13.94    \nframe=   23 fps=1.6 q=54.0 size=       1KiB time=00:00:00.18 bitrate=  24.4kbits/s speed=0.0127x elapsed=0:00:14.46    \nframe=   24 fps=1.6 q=52.0 size=       1KiB time=00:00:00.19 bitrate=  23.4kbits/s speed=0.0128x elapsed=0:00:14.98    \nframe=   24 fps=1.5 q=52.0 size=       1KiB time=00:00:00.19 bitrate=  23.4kbits/s speed=0.0124x elapsed=0:00:15.49    \nframe=   25 fps=1.6 q=52.0 size=       1KiB time=00:00:00.20 bitrate=  22.4kbits/s speed=0.0125x elapsed=0:00:16.00    \nframe=   26 fps=1.6 q=50.0 size=       1KiB time=00:00:00.20 bitrate=  21.5kbits/s speed=0.0126x elapsed=0:00:16.51    \nframe=   26 fps=1.5 q=50.0 size=       1KiB time=00:00:00.20 bitrate=  21.5kbits/s speed=0.0122x elapsed=0:00:17.03    \nframe=   27 fps=1.5 q=52.0 size=       1KiB time=00:00:00.21 bitrate=  20.7kbits/s speed=0.0123x elapsed=0:00:17.54    \nframe=   27 fps=1.5 q=52.0 size=       1KiB time=00:00:00.21 bitrate=  20.7kbits/s speed=0.012x elapsed=0:00:18.06    \nframe=   28 fps=1.5 q=48.0 size=       1KiB time=00:00:00.22 bitrate=  19.9kbits/s speed=0.0121x elapsed=0:00:18.58    \nframe=   31 fps=1.6 q=53.0 size=       1KiB time=00:00:00.25 bitrate=  17.9kbits/s speed=0.0131x elapsed=0:00:19.09    \nframe=   31 fps=1.6 q=53.0 size=       1KiB time=00:00:00.25 bitrate=  17.9kbits/s speed=0.0127x elapsed=0:00:19.62    \nframe=   32 fps=1.6 q=52.0 size=       1KiB time=00:00:00.25 bitrate=  17.3kbits/s speed=0.0128x elapsed=0:00:20.13    \nframe=   33 fps=1.6 q=46.0 size=       1KiB time=00:00:00.26 bitrate=  16.8kbits/s speed=0.0129x elapsed=0:00:20.65    \nframe=   34 fps=1.6 q=48.0 size=       1KiB time=00:00:00.27 bitrate=  16.3kbits/s speed=0.013x elapsed=0:00:21.16    \nframe=   35 fps=1.6 q=53.0 size=       1KiB time=00:00:00.28 bitrate=  15.8kbits/s speed=0.0131x elapsed=0:00:21.67    \nframe=   36 fps=1.6 q=48.0 size=       1KiB time=00:00:00.29 bitrate=  15.4kbits/s speed=0.0131x elapsed=0:00:22.18    \nframe=   37 fps=1.6 q=55.0 size=       1KiB time=00:00:00.30 bitrate=  14.9kbits/s speed=0.0132x elapsed=0:00:22.70    \nframe=   38 fps=1.6 q=48.0 size=       1KiB time=00:00:00.30 bitrate=  14.5kbits/s speed=0.0133x elapsed=0:00:23.22    \nframe=   39 fps=1.6 q=52.0 size=       1KiB time=00:00:00.31 bitrate=  14.1kbits/s speed=0.0133x elapsed=0:00:23.73    \nframe=   41 fps=1.7 q=48.0 size=       1KiB time=00:00:00.33 bitrate=  13.4kbits/s speed=0.0137x elapsed=0:00:24.26    \nframe=   42 fps=1.7 q=47.0 size=       1KiB time=00:00:00.34 bitrate=  13.1kbits/s speed=0.0138x elapsed=0:00:24.76    \nframe=   43 fps=1.7 q=51.0 size=       1KiB time=00:00:00.35 bitrate=  12.8kbits/s speed=0.0138x elapsed=0:00:25.28    \nframe=   44 fps=1.7 q=47.0 size=       1KiB time=00:00:00.35 bitrate=  12.5kbits/s speed=0.0139x elapsed=0:00:25.80    \nframe=   46 fps=1.7 q=48.0 size=       1KiB time=00:00:00.37 bitrate=  11.9kbits/s speed=0.0142x elapsed=0:00:26.32    \nframe=   46 fps=1.7 q=48.0 size=       1KiB time=00:00:00.37 bitrate=  11.9kbits/s speed=0.014x elapsed=0:00:26.84    \nframe=   48 fps=1.8 q=49.0 size=       1KiB time=00:00:00.39 bitrate=  11.4kbits/s speed=0.0143x elapsed=0:00:27.35    \nframe=   49 fps=1.8 q=44.0 size=       1KiB time=00:00:00.40 bitrate=  11.2kbits/s speed=0.0144x elapsed=0:00:27.86    \nframe=   50 fps=1.8 q=50.0 size=       1KiB time=00:00:00.40 bitrate=  11.0kbits/s speed=0.0144x elapsed=0:00:28.37    \nframe=   50 fps=1.7 q=50.0 size=       1KiB time=00:00:00.40 bitrate=  11.0kbits/s speed=0.0141x elapsed=0:00:28.89    \nframe=   51 fps=1.7 q=53.0 size=       1KiB time=00:00:00.41 bitrate=  10.8kbits/s speed=0.0142x elapsed=0:00:29.41    \nframe=   52 fps=1.7 q=50.0 size=       1KiB time=00:00:00.42 bitrate=  10.5kbits/s speed=0.0142x elapsed=0:00:29.93    \nframe=   53 fps=1.7 q=55.0 size=       1KiB time=00:00:00.43 bitrate=  10.3kbits/s speed=0.0142x elapsed=0:00:30.44    \nframe=   54 fps=1.7 q=49.0 size=       1KiB time=00:00:00.44 bitrate=  10.1kbits/s speed=0.0143x elapsed=0:00:30.96    \nframe=   54 fps=1.7 q=49.0 size=       1KiB time=00:00:00.44 bitrate=  10.1kbits/s speed=0.014x elapsed=0:00:31.48    \nframe=   56 fps=1.7 q=49.0 size=       1KiB time=00:00:00.45 bitrate=   9.8kbits/s speed=0.0143x elapsed=0:00:32.01    \nframe=   58 fps=1.8 q=48.0 size=       1KiB time=00:00:00.47 bitrate=   9.4kbits/s speed=0.0146x elapsed=0:00:32.53    \nframe=   59 fps=1.8 q=53.0 size=       1KiB time=00:00:00.48 bitrate=   9.3kbits/s speed=0.0146x elapsed=0:00:33.03    \nframe=   62 fps=1.8 q=48.0 size=       1KiB time=00:00:00.50 bitrate=   8.8kbits/s speed=0.0151x elapsed=0:00:33.56    \nframe=   63 fps=1.8 q=53.0 size=       1KiB time=00:00:00.51 bitrate=   8.7kbits/s speed=0.0152x elapsed=0:00:34.07    \nframe=   65 fps=1.9 q=38.0 size=       1KiB time=00:00:00.53 bitrate=   8.4kbits/s speed=0.0154x elapsed=0:00:34.58    \nframe=   67 fps=1.9 q=50.0 size=       1KiB time=00:00:00.55 bitrate=   8.1kbits/s speed=0.0157x elapsed=0:00:35.10    \nframe=   68 fps=1.9 q=45.0 size=       1KiB time=00:00:00.55 bitrate=   8.0kbits/s speed=0.0157x elapsed=0:00:35.62    \nframe=   69 fps=1.9 q=53.0 size=       1KiB time=00:00:00.56 bitrate=   7.9kbits/s speed=0.0157x elapsed=0:00:36.12    \nframe=   69 fps=1.9 q=53.0 size=       1KiB time=00:00:00.56 bitrate=   7.9kbits/s speed=0.0155x elapsed=0:00:36.64    \nframe=   70 fps=1.9 q=45.0 size=       1KiB time=00:00:00.57 bitrate=   7.8kbits/s speed=0.0155x elapsed=0:00:37.15    \nframe=   71 fps=1.9 q=50.0 size=       1KiB time=00:00:00.58 bitrate=   7.7kbits/s speed=0.0155x elapsed=0:00:37.68    \nframe=   72 fps=1.9 q=45.0 size=       1KiB time=00:00:00.59 bitrate=   7.6kbits/s speed=0.0155x elapsed=0:00:38.19    \nframe=   74 fps=1.9 q=45.0 size=       1KiB time=00:00:00.60 bitrate=   7.4kbits/s speed=0.0157x elapsed=0:00:38.71    \nframe=   75 fps=1.9 q=50.0 size=       1KiB time=00:00:00.61 bitrate=   7.3kbits/s speed=0.0157x elapsed=0:00:39.22    \nframe=   77 fps=1.9 q=53.0 size=       1KiB time=00:00:00.63 bitrate=   7.1kbits/s speed=0.0159x elapsed=0:00:39.74    \nframe=   78 fps=1.9 q=48.0 size=       1KiB time=00:00:00.64 bitrate=   7.0kbits/s speed=0.0159x elapsed=0:00:40.26    \nframe=   79 fps=1.9 q=51.0 size=       1KiB time=00:00:00.65 bitrate=   6.9kbits/s speed=0.0159x elapsed=0:00:40.77    \nframe=   81 fps=2.0 q=37.0 size=       1KiB time=00:00:00.66 bitrate=   6.7kbits/s speed=0.0161x elapsed=0:00:41.29    \nframe=   82 fps=2.0 q=47.0 size=       1KiB time=00:00:00.67 bitrate=   6.6kbits/s speed=0.0161x elapsed=0:00:41.80    \nframe=   82 fps=1.9 q=47.0 size=       1KiB time=00:00:00.67 bitrate=   6.6kbits/s speed=0.0159x elapsed=0:00:42.32    \nframe=   83 fps=1.9 q=51.0 size=       1KiB time=00:00:00.68 bitrate=   6.6kbits/s speed=0.016x elapsed=0:00:42.84    \nframe=   84 fps=1.9 q=46.0 size=       1KiB time=00:00:00.69 bitrate=   6.5kbits/s speed=0.016x elapsed=0:00:43.34    \nframe=   85 fps=1.9 q=54.0 size=       1KiB time=00:00:00.70 bitrate=   6.4kbits/s speed=0.016x elapsed=0:00:43.87    \nframe=   85 fps=1.9 q=54.0 size=       1KiB time=00:00:00.70 bitrate=   6.4kbits/s speed=0.0158x elapsed=0:00:44.39    \nframe=   86 fps=1.9 q=47.0 size=       1KiB time=00:00:00.70 bitrate=   6.3kbits/s speed=0.0158x elapsed=0:00:44.89    \nframe=   87 fps=1.9 q=51.0 size=       1KiB time=00:00:00.71 bitrate=   6.3kbits/s speed=0.0158x elapsed=0:00:45.41    \nframe=   88 fps=1.9 q=48.0 size=       1KiB time=00:00:00.72 bitrate=   6.2kbits/s speed=0.0158x elapsed=0:00:45.93    \nframe=   90 fps=1.9 q=48.0 size=       1KiB time=00:00:00.74 bitrate=   6.0kbits/s speed=0.016x elapsed=0:00:46.44    \nframe=   90 fps=1.9 q=48.0 size=       1KiB time=00:00:00.74 bitrate=   6.0kbits/s speed=0.0158x elapsed=0:00:46.96    \nframe=   92 fps=1.9 q=47.0 size=       1KiB time=00:00:00.75 bitrate=   5.9kbits/s speed=0.016x elapsed=0:00:47.48    \nframe=   94 fps=2.0 q=47.0 size=       1KiB time=00:00:00.77 bitrate=   5.8kbits/s speed=0.0162x elapsed=0:00:47.98    \nframe=   95 fps=2.0 q=51.0 size=       1KiB time=00:00:00.78 bitrate=   5.7kbits/s speed=0.0161x elapsed=0:00:48.51    \nframe=   96 fps=2.0 q=47.0 size=       1KiB time=00:00:00.79 bitrate=   5.7kbits/s speed=0.0161x elapsed=0:00:49.03    \nframe=   98 fps=2.0 q=46.0 size=       1KiB time=00:00:00.80 bitrate=   5.5kbits/s speed=0.0163x elapsed=0:00:49.54    \nframe=   98 fps=2.0 q=46.0 size=       1KiB time=00:00:00.80 bitrate=   5.5kbits/s speed=0.0161x elapsed=0:00:50.05    \nframe=   99 fps=2.0 q=51.0 size=       1KiB time=00:00:00.81 bitrate=   5.5kbits/s speed=0.0161x elapsed=0:00:50.57    \nframe=  100 fps=2.0 q=47.0 size=       1KiB time=00:00:00.82 bitrate=   5.4kbits/s speed=0.0162x elapsed=0:00:51.08    \nframe=  101 fps=2.0 q=53.0 size=       1KiB time=00:00:00.83 bitrate=   5.4kbits/s speed=0.0161x elapsed=0:00:51.60    \nframe=  102 fps=2.0 q=47.0 size=       1KiB time=00:00:00.84 bitrate=   5.3kbits/s speed=0.0161x elapsed=0:00:52.12    \nframe=  103 fps=2.0 q=52.0 size=       1KiB time=00:00:00.85 bitrate=   5.3kbits/s speed=0.0162x elapsed=0:00:52.62    \nframe=  104 fps=2.0 q=48.0 size=       1KiB time=00:00:00.85 bitrate=   5.2kbits/s speed=0.0161x elapsed=0:00:53.15    \nframe=  106 fps=2.0 q=48.0 size=       1KiB time=00:00:00.87 bitrate=   5.1kbits/s speed=0.0163x elapsed=0:00:53.66    \nframe=  108 fps=2.0 q=47.0 size=       1KiB time=00:00:00.89 bitrate=   5.0kbits/s speed=0.0165x elapsed=0:00:54.18    \nframe=  111 fps=2.0 q=52.0 size=       1KiB time=00:00:00.91 bitrate=   4.9kbits/s speed=0.0168x elapsed=0:00:54.69    \nframe=  112 fps=2.0 q=48.0 size=       1KiB time=00:00:00.92 bitrate=   4.8kbits/s speed=0.0168x elapsed=0:00:55.21    \nframe=  113 fps=2.0 q=36.0 size=       1KiB time=00:00:00.93 bitrate=   4.8kbits/s speed=0.0167x elapsed=0:00:55.72    \nframe=  114 fps=2.0 q=47.0 size=       1KiB time=00:00:00.94 bitrate=   4.8kbits/s speed=0.0167x elapsed=0:00:56.24    \nframe=  115 fps=2.0 q=52.0 size=       1KiB time=00:00:00.95 bitrate=   4.7kbits/s speed=0.0167x elapsed=0:00:56.76    \nframe=  116 fps=2.0 q=47.0 size=       1KiB time=00:00:00.95 bitrate=   4.7kbits/s speed=0.0167x elapsed=0:00:57.29    \nframe=  117 fps=2.0 q=53.0 size=       1KiB time=00:00:00.96 bitrate=   4.6kbits/s speed=0.0167x elapsed=0:00:57.80    \nframe=  117 fps=2.0 q=53.0 size=       1KiB time=00:00:00.96 bitrate=   4.6kbits/s speed=0.0166x elapsed=0:00:58.32    \nframe=  118 fps=2.0 q=49.0 size=       1KiB time=00:00:00.97 bitrate=   4.6kbits/s speed=0.0166x elapsed=0:00:58.85    \nframe=  119 fps=2.0 q=52.0 size=       1KiB time=00:00:00.98 bitrate=   4.6kbits/s speed=0.0166x elapsed=0:00:59.36    \nframe=  121 fps=2.0 q=42.0 size=       1KiB time=00:00:01.00 bitrate=   4.5kbits/s speed=0.0167x elapsed=0:00:59.88    \nframe=  122 fps=2.0 q=48.0 size=       1KiB time=00:00:01.00 bitrate=   4.4kbits/s speed=0.0167x elapsed=0:01:00.39    \nframe=  124 fps=2.0 q=48.0 size=       1KiB time=00:00:01.02 bitrate=   4.4kbits/s speed=0.0168x elapsed=0:01:00.91    \nframe=  125 fps=2.0 q=54.0 size=       1KiB time=00:00:01.03 bitrate=   4.3kbits/s speed=0.0168x elapsed=0:01:01.45    \nframe=  127 fps=2.0 q=52.0 size=       1KiB time=00:00:01.05 bitrate=   4.3kbits/s speed=0.0169x elapsed=0:01:01.97    \nframe=  130 fps=2.1 q=48.0 size=       1KiB time=00:00:01.07 bitrate=   4.2kbits/s speed=0.0172x elapsed=0:01:02.49    \nframe=  131 fps=2.1 q=53.0 size=       1KiB time=00:00:01.08 bitrate=   4.1kbits/s speed=0.0172x elapsed=0:01:03.00    \nframe=  132 fps=2.1 q=47.0 size=       1KiB time=00:00:01.09 bitrate=   4.1kbits/s speed=0.0172x elapsed=0:01:03.52    \nframe=  133 fps=2.1 q=54.0 size=       1KiB time=00:00:01.10 bitrate=   4.1kbits/s speed=0.0172x elapsed=0:01:04.04    \nframe=  134 fps=2.1 q=47.0 size=       1KiB time=00:00:01.10 bitrate=   4.0kbits/s speed=0.0172x elapsed=0:01:04.55    \nframe=  135 fps=2.1 q=53.0 size=       1KiB time=00:00:01.11 bitrate=   4.0kbits/s speed=0.0172x elapsed=0:01:05.06    \nframe=  137 fps=2.1 q=42.0 size=       1KiB time=00:00:01.13 bitrate=   4.0kbits/s speed=0.0173x elapsed=0:01:05.58    \nframe=  138 fps=2.1 q=48.0 size=       1KiB time=00:00:01.14 bitrate=   3.9kbits/s speed=0.0173x elapsed=0:01:06.09    \nframe=  139 fps=2.1 q=52.0 size=       1KiB time=00:00:01.15 bitrate=   3.9kbits/s speed=0.0172x elapsed=0:01:06.69    \nframe=  141 fps=2.1 q=54.0 size=       1KiB time=00:00:01.16 bitrate=   3.8kbits/s speed=0.0174x elapsed=0:01:07.21    \nframe=  144 fps=2.1 q=48.0 size=       1KiB time=00:00:01.19 bitrate=   3.8kbits/s speed=0.0176x elapsed=0:01:07.77    \nframe=  145 fps=2.1 q=35.0 size=       1KiB time=00:00:01.20 bitrate=   3.7kbits/s speed=0.0176x elapsed=0:01:08.29    \nframe=  149 fps=2.2 q=54.0 size=       1KiB time=00:00:01.23 bitrate=   3.6kbits/s speed=0.0179x elapsed=0:01:08.83    \nframe=  150 fps=2.2 q=46.0 size=       1KiB time=00:00:01.24 bitrate=   3.6kbits/s speed=0.0179x elapsed=0:01:09.36    \nframe=  154 fps=2.2 q=44.0 size=       1KiB time=00:00:01.27 bitrate=   3.5kbits/s speed=0.0182x elapsed=0:01:09.95    \nframe=  157 fps=2.2 q=53.0 size=       1KiB time=00:00:01.30 bitrate=   3.4kbits/s speed=0.0184x elapsed=0:01:10.47    \nframe=  158 fps=2.2 q=44.0 size=       1KiB time=00:00:01.30 bitrate=   3.4kbits/s speed=0.0184x elapsed=0:01:11.01    \nframe=  161 fps=2.3 q=36.0 size=       1KiB time=00:00:01.33 bitrate=   3.4kbits/s speed=0.0186x elapsed=0:01:11.53    \nframe=  163 fps=2.3 q=49.0 size=       1KiB time=00:00:01.35 bitrate=   3.3kbits/s speed=0.0187x elapsed=0:01:12.06    \nframe=  164 fps=2.3 q=44.0 size=       1KiB time=00:00:01.35 bitrate=   3.3kbits/s speed=0.0187x elapsed=0:01:12.56    \nframe=  165 fps=2.3 q=52.0 size=       1KiB time=00:00:01.36 bitrate=   3.3kbits/s speed=0.0187x elapsed=0:01:13.08    \nframe=  166 fps=2.3 q=46.0 size=       1KiB time=00:00:01.37 bitrate=   3.3kbits/s speed=0.0187x elapsed=0:01:13.59    \nframe=  167 fps=2.3 q=50.0 size=       1KiB time=00:00:01.38 bitrate=   3.2kbits/s speed=0.0187x elapsed=0:01:14.12    \nframe=  170 fps=2.3 q=47.0 size=       1KiB time=00:00:01.40 bitrate=   3.2kbits/s speed=0.0189x elapsed=0:01:14.63    \nframe=  172 fps=2.3 q=46.0 size=       1KiB time=00:00:01.42 bitrate=   3.1kbits/s speed=0.019x elapsed=0:01:15.15    \nframe=  173 fps=2.3 q=53.0 size=       1KiB time=00:00:01.43 bitrate=   3.1kbits/s speed=0.0189x elapsed=0:01:15.66    \nframe=  176 fps=2.3 q=46.0 size=       1KiB time=00:00:01.45 bitrate=   3.1kbits/s speed=0.0191x elapsed=0:01:16.18    \nframe=  177 fps=2.3 q=36.0 size=       1KiB time=00:00:01.46 bitrate=   3.1kbits/s speed=0.0191x elapsed=0:01:16.70    \nframe=  179 fps=2.3 q=52.0 size=       1KiB time=00:00:01.48 bitrate=   3.0kbits/s speed=0.0192x elapsed=0:01:17.22    \nframe=  181 fps=2.3 q=53.0 size=       1KiB time=00:00:01.50 bitrate=   3.0kbits/s speed=0.0193x elapsed=0:01:17.74    \nframe=  183 fps=2.3 q=51.0 size=       1KiB time=00:00:01.51 bitrate=   3.0kbits/s speed=0.0194x elapsed=0:01:18.25    \nframe=  186 fps=2.4 q=47.0 size=       1KiB time=00:00:01.54 bitrate=   2.9kbits/s speed=0.0196x elapsed=0:01:18.77    \nframe=  189 fps=2.4 q=53.0 size=       1KiB time=00:00:01.56 bitrate=   2.9kbits/s speed=0.0198x elapsed=0:01:19.29    \nframe=  191 fps=2.4 q=51.0 size=       1KiB time=00:00:01.58 bitrate=   2.8kbits/s speed=0.0198x elapsed=0:01:19.80    \nframe=  193 fps=2.4 q=36.0 size=       1KiB time=00:00:01.60 bitrate=   2.8kbits/s speed=0.0199x elapsed=0:01:20.32    \nframe=  195 fps=2.4 q=50.0 size=       1KiB time=00:00:01.61 bitrate=   2.8kbits/s speed=0.02x elapsed=0:01:20.83    \nframe=  197 fps=2.4 q=52.0 size=       1KiB time=00:00:01.63 bitrate=   2.7kbits/s speed=0.0201x elapsed=0:01:21.35    \nframe=  199 fps=2.4 q=50.0 size=       1KiB time=00:00:01.65 bitrate=   2.7kbits/s speed=0.0202x elapsed=0:01:21.86    \nframe=  200 fps=2.4 q=46.0 size=       1KiB time=00:00:01.65 bitrate=   2.7kbits/s speed=0.0201x elapsed=0:01:22.38    \nframe=  201 fps=2.4 q=39.0 size=       1KiB time=00:00:01.66 bitrate=   2.7kbits/s speed=0.0201x elapsed=0:01:22.89    \nframe=  204 fps=2.4 q=46.0 size=       1KiB time=00:00:01.69 bitrate=   2.6kbits/s speed=0.0203x elapsed=0:01:23.41    \nframe=  206 fps=2.5 q=48.0 size=       1KiB time=00:00:01.70 bitrate=   2.6kbits/s speed=0.0204x elapsed=0:01:23.92    \nframe=  208 fps=2.5 q=48.0 size=       1KiB time=00:00:01.72 bitrate=   2.6kbits/s speed=0.0204x elapsed=0:01:24.44    \nframe=  209 fps=2.5 q=36.0 size=       1KiB time=00:00:01.73 bitrate=   2.6kbits/s speed=0.0204x elapsed=0:01:24.95    \nframe=  211 fps=2.5 q=53.0 size=       1KiB time=00:00:01.75 bitrate=   2.6kbits/s speed=0.0205x elapsed=0:01:25.47    \nframe=  213 fps=2.5 q=53.0 size=       1KiB time=00:00:01.76 bitrate=   2.5kbits/s speed=0.0205x elapsed=0:01:26.00    \nframe=  214 fps=2.5 q=48.0 size=       1KiB time=00:00:01.77 bitrate=   2.5kbits/s speed=0.0205x elapsed=0:01:26.52    \nframe=  215 fps=2.5 q=53.0 size=       1KiB time=00:00:01.78 bitrate=   2.5kbits/s speed=0.0205x elapsed=0:01:27.04    \nframe=  217 fps=2.5 q=39.0 size=       1KiB time=00:00:01.80 bitrate=   2.5kbits/s speed=0.0206x elapsed=0:01:27.56    \nframe=  219 fps=2.5 q=53.0 size=       1KiB time=00:00:01.81 bitrate=   2.5kbits/s speed=0.0206x elapsed=0:01:28.06    \nframe=  221 fps=2.5 q=54.0 size=       1KiB time=00:00:01.83 bitrate=   2.4kbits/s speed=0.0207x elapsed=0:01:28.58    \nframe=  224 fps=2.5 q=48.0 size=       1KiB time=00:00:01.85 bitrate=   2.4kbits/s speed=0.0209x elapsed=0:01:29.09    \nframe=  225 fps=2.5 q=35.0 size=       1KiB time=00:00:01.86 bitrate=   2.4kbits/s speed=0.0208x elapsed=0:01:29.62    \nframe=  228 fps=2.5 q=48.0 size=       1KiB time=00:00:01.89 bitrate=   2.4kbits/s speed=0.021x elapsed=0:01:30.12    \nframe=  230 fps=2.5 q=49.0 size=       1KiB time=00:00:01.90 bitrate=   2.3kbits/s speed=0.0211x elapsed=0:01:30.65    \nframe=  231 fps=2.5 q=53.0 size=       1KiB time=00:00:01.91 bitrate=   2.3kbits/s speed=0.021x elapsed=0:01:31.17    \nframe=  234 fps=2.6 q=48.0 size=       1KiB time=00:00:01.94 bitrate=   2.3kbits/s speed=0.0212x elapsed=0:01:31.67    \nframe=  237 fps=2.6 q=54.0 size=       1KiB time=00:00:01.96 bitrate=   2.3kbits/s speed=0.0213x elapsed=0:01:32.20    \nframe=  240 fps=2.6 q=49.0 size=       1KiB time=00:00:01.99 bitrate=   2.2kbits/s speed=0.0215x elapsed=0:01:32.70    \nframe=  243 fps=2.6 q=53.0 size=       1KiB time=00:00:02.01 bitrate=   2.2kbits/s speed=0.0216x elapsed=0:01:33.22    \nframe=  244 fps=2.6 q=48.0 size=       1KiB time=00:00:02.02 bitrate=   2.2kbits/s speed=0.0216x elapsed=0:01:33.73    \nframe=  246 fps=2.6 q=48.0 size=       1KiB time=00:00:02.04 bitrate=   2.2kbits/s speed=0.0217x elapsed=0:01:34.26    \nframe=  247 fps=2.6 q=53.0 size=       1KiB time=00:00:02.05 bitrate=   2.2kbits/s speed=0.0216x elapsed=0:01:34.77    \nframe=  250 fps=2.6 q=47.0 size=       1KiB time=00:00:02.07 bitrate=   2.2kbits/s speed=0.0218x elapsed=0:01:35.29    \nframe=  251 fps=2.6 q=51.0 size=       1KiB time=00:00:02.08 bitrate=   2.2kbits/s speed=0.0217x elapsed=0:01:35.80    \nframe=  253 fps=2.6 q=54.0 size=       1KiB time=00:00:02.10 bitrate=   2.1kbits/s speed=0.0218x elapsed=0:01:36.32    \nframe=  256 fps=2.6 q=47.0 size=       1KiB time=00:00:02.12 bitrate=   2.1kbits/s speed=0.0219x elapsed=0:01:36.84    \nframe=  258 fps=2.7 q=45.0 size=       1KiB time=00:00:02.14 bitrate=   2.1kbits/s speed=0.022x elapsed=0:01:37.35    \nframe=  259 fps=2.6 q=47.0 size=       1KiB time=00:00:02.15 bitrate=   2.1kbits/s speed=0.022x elapsed=0:01:37.87    \nframe=  261 fps=2.7 q=51.0 size=       1KiB time=00:00:02.16 bitrate=   2.1kbits/s speed=0.022x elapsed=0:01:38.38    \nframe=  263 fps=2.7 q=47.0 size=       1KiB time=00:00:02.18 bitrate=   2.1kbits/s speed=0.0221x elapsed=0:01:38.90    \nframe=  264 fps=2.7 q=45.0 size=       1KiB time=00:00:02.19 bitrate=   2.0kbits/s speed=0.022x elapsed=0:01:39.41    \nframe=  266 fps=2.7 q=46.0 size=       1KiB time=00:00:02.20 bitrate=   2.0kbits/s speed=0.0221x elapsed=0:01:39.93    \nframe=  267 fps=2.7 q=48.0 size=       1KiB time=00:00:02.21 bitrate=   2.0kbits/s speed=0.0221x elapsed=0:01:40.44    \nframe=  270 fps=2.7 q=47.0 size=       1KiB time=00:00:02.24 bitrate=   2.0kbits/s speed=0.0222x elapsed=0:01:40.96    \nframe=  271 fps=2.7 q=50.0 size=       1KiB time=00:00:02.25 bitrate=   2.0kbits/s speed=0.0222x elapsed=0:01:41.48    \nframe=  273 fps=2.7 q=41.0 size=       1KiB time=00:00:02.26 bitrate=   2.0kbits/s speed=0.0222x elapsed=0:01:41.98    \nframe=  274 fps=2.7 q=48.0 size=       1KiB time=00:00:02.27 bitrate=   2.0kbits/s speed=0.0222x elapsed=0:01:42.51    \nframe=  275 fps=2.7 q=51.0 size=       1KiB time=00:00:02.28 bitrate=   2.0kbits/s speed=0.0222x elapsed=0:01:43.03    \nframe=  277 fps=2.7 q=51.0 size=       1KiB time=00:00:02.30 bitrate=   1.9kbits/s speed=0.0222x elapsed=0:01:43.55    \nframe=  279 fps=2.7 q=53.0 size=       1KiB time=00:00:02.31 bitrate=   1.9kbits/s speed=0.0223x elapsed=0:01:44.07    \nframe=  282 fps=2.7 q=49.0 size=       1KiB time=00:00:02.34 bitrate=   1.9kbits/s speed=0.0224x elapsed=0:01:44.58    \nframe=  283 fps=2.7 q=53.0 size=       1KiB time=00:00:02.35 bitrate=   1.9kbits/s speed=0.0224x elapsed=0:01:45.10    \nframe=  285 fps=2.7 q=54.0 size=       1KiB time=00:00:02.36 bitrate=   1.9kbits/s speed=0.0224x elapsed=0:01:45.61    \nframe=  290 fps=2.7 q=50.0 size=       1KiB time=00:00:02.40 bitrate=   1.9kbits/s speed=0.0227x elapsed=0:01:46.13    \nframe=  291 fps=2.7 q=55.0 size=       1KiB time=00:00:02.41 bitrate=   1.9kbits/s speed=0.0227x elapsed=0:01:46.65    \nframe=  293 fps=2.7 q=55.0 size=       1KiB time=00:00:02.43 bitrate=   1.8kbits/s speed=0.0227x elapsed=0:01:47.16    \nframe=  293 fps=2.7 q=55.0 size=       1KiB time=00:00:02.43 bitrate=   1.8kbits/s speed=0.0226x elapsed=0:01:47.68    \nframe=  294 fps=2.7 q=50.0 size=       1KiB time=00:00:02.44 bitrate=   1.8kbits/s speed=0.0226x elapsed=0:01:48.20    \nframe=  296 fps=2.7 q=50.0 size=       1KiB time=00:00:02.45 bitrate=   1.8kbits/s speed=0.0226x elapsed=0:01:48.72    \nframe=  297 fps=2.7 q=41.0 size=       1KiB time=00:00:02.46 bitrate=   1.8kbits/s speed=0.0226x elapsed=0:01:49.24    \nframe=  301 fps=2.7 q=55.0 size=       1KiB time=00:00:02.50 bitrate=   1.8kbits/s speed=0.0228x elapsed=0:01:49.75    \nframe=  304 fps=2.8 q=50.0 size=       1KiB time=00:00:02.52 bitrate=   1.8kbits/s speed=0.0229x elapsed=0:01:50.27    \nframe=  306 fps=2.8 q=48.0 size=       1KiB time=00:00:02.54 bitrate=   1.8kbits/s speed=0.0229x elapsed=0:01:50.79    \nframe=  309 fps=2.8 q=55.0 size=       1KiB time=00:00:02.56 bitrate=   1.7kbits/s speed=0.0231x elapsed=0:01:51.30    \nframe=  310 fps=2.8 q=48.0 size=       1KiB time=00:00:02.57 bitrate=   1.7kbits/s speed=0.023x elapsed=0:01:51.82    \nframe=  310 fps=2.8 q=48.0 size=       1KiB time=00:00:02.57 bitrate=   1.7kbits/s speed=0.0229x elapsed=0:01:52.33    \nframe=  311 fps=2.8 q=51.0 size=       1KiB time=00:00:02.58 bitrate=   1.7kbits/s speed=0.0229x elapsed=0:01:52.84    \nframe=  313 fps=2.8 q=41.0 size=       1KiB time=00:00:02.60 bitrate=   1.7kbits/s speed=0.0229x elapsed=0:01:53.37    \nframe=  314 fps=2.8 q=48.0 size=       1KiB time=00:00:02.60 bitrate=   1.7kbits/s speed=0.0229x elapsed=0:01:53.88    \nframe=  314 fps=2.7 q=48.0 size=       1KiB time=00:00:02.60 bitrate=   1.7kbits/s speed=0.0228x elapsed=0:01:54.40    \nframe=  317 fps=2.8 q=54.0 size=       1KiB time=00:00:02.63 bitrate=   1.7kbits/s speed=0.0229x elapsed=0:01:54.90    \nframe=  319 fps=2.8 q=51.0 size=       1KiB time=00:00:02.65 bitrate=   1.7kbits/s speed=0.023x elapsed=0:01:55.43    \nframe=  320 fps=2.8 q=47.0 size=       1KiB time=00:00:02.65 bitrate=   1.7kbits/s speed=0.0229x elapsed=0:01:55.94    \nframe=  322 fps=2.8 q=49.0 size=       1KiB time=00:00:02.67 bitrate=   1.7kbits/s speed=0.023x elapsed=0:01:56.46    \nframe=  325 fps=2.8 q=54.0 size=       1KiB time=00:00:02.70 bitrate=   1.7kbits/s speed=0.0231x elapsed=0:01:56.97    \nframe=  326 fps=2.8 q=49.0 size=       1KiB time=00:00:02.70 bitrate=   1.7kbits/s speed=0.0231x elapsed=0:01:57.49    \nframe=  327 fps=2.8 q=53.0 size=       1KiB time=00:00:02.71 bitrate=   1.6kbits/s speed=0.023x elapsed=0:01:58.01    \nframe=  330 fps=2.8 q=49.0 size=       1KiB time=00:00:02.74 bitrate=   1.6kbits/s speed=0.0231x elapsed=0:01:58.52    \nframe=  333 fps=2.8 q=54.0 size=       1KiB time=00:00:02.76 bitrate=   1.6kbits/s speed=0.0232x elapsed=0:01:59.04    \nframe=  336 fps=2.8 q=50.0 size=       1KiB time=00:00:02.79 bitrate=   1.6kbits/s speed=0.0234x elapsed=0:01:59.55    \nframe=  339 fps=2.8 q=52.0 size=       1KiB time=00:00:02.81 bitrate=   1.6kbits/s speed=0.0235x elapsed=0:02:00.07    \nframe=  341 fps=2.8 q=54.0 size=       1KiB time=00:00:02.83 bitrate=   1.6kbits/s speed=0.0235x elapsed=0:02:00.57    \nframe=  342 fps=2.8 q=48.0 size=       1KiB time=00:00:02.84 bitrate=   1.6kbits/s speed=0.0235x elapsed=0:02:01.10    \nframe=  344 fps=2.8 q=48.0 size=       1KiB time=00:00:02.85 bitrate=   1.6kbits/s speed=0.0235x elapsed=0:02:01.62    \nframe=  346 fps=2.8 q=48.0 size=       1KiB time=00:00:02.87 bitrate=   1.6kbits/s speed=0.0235x elapsed=0:02:02.12    \nframe=  348 fps=2.8 q=48.0 size=       1KiB time=00:00:02.89 bitrate=   1.5kbits/s speed=0.0236x elapsed=0:02:02.64    \nframe=  351 fps=2.8 q=51.0 size=       1KiB time=00:00:02.91 bitrate=   1.5kbits/s speed=0.0237x elapsed=0:02:03.16    \nframe=  355 fps=2.9 q=53.0 size=       1KiB time=00:00:02.95 bitrate=   1.5kbits/s speed=0.0239x elapsed=0:02:03.67    \nframe=  358 fps=2.9 q=49.0 size=       1KiB time=00:00:02.97 bitrate=   1.5kbits/s speed=0.024x elapsed=0:02:04.19    \nframe=  361 fps=2.9 q=42.0 size=       1KiB time=00:00:03.00 bitrate=   1.5kbits/s speed=0.0241x elapsed=0:02:04.71    \nframe=  363 fps=2.9 q=53.0 size=       1KiB time=00:00:03.01 bitrate=   1.5kbits/s speed=0.0241x elapsed=0:02:05.22    \nframe=  366 fps=2.9 q=49.0 size=       1KiB time=00:00:03.04 bitrate=   1.5kbits/s speed=0.0242x elapsed=0:02:05.73    \nframe=  368 fps=2.9 q=45.0 size=       1KiB time=00:00:03.05 bitrate=   1.5kbits/s speed=0.0242x elapsed=0:02:06.26    \nframe=  373 fps=2.9 q=54.0 size=       1KiB time=00:00:03.10 bitrate=   1.4kbits/s speed=0.0245x elapsed=0:02:06.77    \nframe=  374 fps=2.9 q=48.0 size=       1KiB time=00:00:03.10 bitrate=   1.4kbits/s speed=0.0244x elapsed=0:02:07.29    \nframe=  376 fps=2.9 q=48.0 size=       1KiB time=00:00:03.12 bitrate=   1.4kbits/s speed=0.0245x elapsed=0:02:07.80    \nframe=  378 fps=2.9 q=48.0 size=       1KiB time=00:00:03.14 bitrate=   1.4kbits/s speed=0.0245x elapsed=0:02:08.32    \nframe=  379 fps=2.9 q=51.0 size=       1KiB time=00:00:03.15 bitrate=   1.4kbits/s speed=0.0245x elapsed=0:02:08.82    \nframe=  382 fps=3.0 q=48.0 size=       1KiB time=00:00:03.17 bitrate=   1.4kbits/s speed=0.0245x elapsed=0:02:09.35    \nframe=  383 fps=2.9 q=51.0 size=       1KiB time=00:00:03.18 bitrate=   1.4kbits/s speed=0.0245x elapsed=0:02:09.87    \nframe=  384 fps=2.9 q=48.0 size=       1KiB time=00:00:03.19 bitrate=   1.4kbits/s speed=0.0245x elapsed=0:02:10.38    \nframe=  386 fps=2.9 q=49.0 size=       1KiB time=00:00:03.20 bitrate=   1.4kbits/s speed=0.0245x elapsed=0:02:10.90    \nframe=  388 fps=3.0 q=49.0 size=       1KiB time=00:00:03.22 bitrate=   1.4kbits/s speed=0.0245x elapsed=0:02:11.40    \nframe=  389 fps=2.9 q=54.0 size=       1KiB time=00:00:03.23 bitrate=   1.4kbits/s speed=0.0245x elapsed=0:02:11.93    \nframe=  391 fps=3.0 q=53.0 size=       1KiB time=00:00:03.25 bitrate=   1.4kbits/s speed=0.0245x elapsed=0:02:12.44    \nframe=  392 fps=2.9 q=49.0 size=       1KiB time=00:00:03.25 bitrate=   1.4kbits/s speed=0.0245x elapsed=0:02:12.96    \nframe=  394 fps=3.0 q=49.0 size=       1KiB time=00:00:03.27 bitrate=   1.4kbits/s speed=0.0245x elapsed=0:02:13.47    \nframe=  397 fps=3.0 q=55.0 size=       1KiB time=00:00:03.30 bitrate=   1.4kbits/s speed=0.0246x elapsed=0:02:13.99    \nframe=  399 fps=3.0 q=54.0 size=       1KiB time=00:00:03.31 bitrate=   1.4kbits/s speed=0.0247x elapsed=0:02:14.50    \nframe=  400 fps=3.0 q=50.0 size=       1KiB time=00:00:03.32 bitrate=   1.3kbits/s speed=0.0246x elapsed=0:02:15.02    \nframe=  402 fps=3.0 q=50.0 size=       1KiB time=00:00:03.34 bitrate=   1.3kbits/s speed=0.0247x elapsed=0:02:15.53    \nframe=  404 fps=3.0 q=50.0 size=       1KiB time=00:00:03.35 bitrate=   1.3kbits/s speed=0.0247x elapsed=0:02:16.05    \nframe=  406 fps=3.0 q=50.0 size=       1KiB time=00:00:03.37 bitrate=   1.3kbits/s speed=0.0247x elapsed=0:02:16.57    \nframe=  408 fps=3.0 q=50.0 size=       1KiB time=00:00:03.39 bitrate=   1.3kbits/s speed=0.0247x elapsed=0:02:17.09    \nframe=  412 fps=3.0 q=49.0 size=       1KiB time=00:00:03.42 bitrate=   1.3kbits/s speed=0.0249x elapsed=0:02:17.59    \nframe=  414 fps=3.0 q=49.0 size=       1KiB time=00:00:03.44 bitrate=   1.3kbits/s speed=0.0249x elapsed=0:02:18.11    \nframe=  418 fps=3.0 q=49.0 size=       1KiB time=00:00:03.47 bitrate=   1.3kbits/s speed=0.0251x elapsed=0:02:18.62    \nframe=  420 fps=3.0 q=46.0 size=       1KiB time=00:00:03.49 bitrate=   1.3kbits/s speed=0.0251x elapsed=0:02:19.14    \nframe=  420 fps=3.0 q=46.0 size=       1KiB time=00:00:03.49 bitrate=   1.3kbits/s speed=0.025x elapsed=0:02:19.66    \nframe=  422 fps=3.0 q=49.0 size=       1KiB time=00:00:03.50 bitrate=   1.3kbits/s speed=0.025x elapsed=0:02:20.17    \nframe=  425 fps=3.0 q=42.0 size=       1KiB time=00:00:03.53 bitrate=   1.3kbits/s speed=0.0251x elapsed=0:02:20.70    \nframe=  427 fps=3.0 q=52.0 size=       1KiB time=00:00:03.55 bitrate=   1.3kbits/s speed=0.0251x elapsed=0:02:21.20    \nframe=  429 fps=3.0 q=54.0 size=       1KiB time=00:00:03.56 bitrate=   1.3kbits/s speed=0.0252x elapsed=0:02:21.72    \nframe=  432 fps=3.0 q=50.0 size=       1KiB time=00:00:03.59 bitrate=   1.2kbits/s speed=0.0252x elapsed=0:02:22.25    \nframe=  434 fps=3.0 q=50.0 size=       1KiB time=00:00:03.60 bitrate=   1.2kbits/s speed=0.0253x elapsed=0:02:22.75    \nframe=  436 fps=3.0 q=50.0 size=       1KiB time=00:00:03.62 bitrate=   1.2kbits/s speed=0.0253x elapsed=0:02:23.27    \nframe=  437 fps=3.0 q=53.0 size=       1KiB time=00:00:03.63 bitrate=   1.2kbits/s speed=0.0253x elapsed=0:02:23.78    \nframe=  438 fps=3.0 q=50.0 size=       1KiB time=00:00:03.64 bitrate=   1.2kbits/s speed=0.0252x elapsed=0:02:24.30    \nframe=  442 fps=3.1 q=50.0 size=       1KiB time=00:00:03.67 bitrate=   1.2kbits/s speed=0.0254x elapsed=0:02:24.81    \nframe=  443 fps=3.0 q=53.0 size=       1KiB time=00:00:03.68 bitrate=   1.2kbits/s speed=0.0253x elapsed=0:02:25.33    \nframe=  446 fps=3.1 q=50.0 size=       1KiB time=00:00:03.70 bitrate=   1.2kbits/s speed=0.0254x elapsed=0:02:25.85    \nframe=  450 fps=3.1 q=52.0 size=       1KiB time=00:00:03.74 bitrate=   1.2kbits/s speed=0.0256x elapsed=0:02:26.36    \nframe=  451 fps=3.1 q=56.0 size=       1KiB time=00:00:03.75 bitrate=   1.2kbits/s speed=0.0255x elapsed=0:02:26.88    \nframe=  454 fps=3.1 q=51.0 size=       1KiB time=00:00:03.77 bitrate=   1.2kbits/s speed=0.0256x elapsed=0:02:27.40    \nframe=  455 fps=3.1 q=55.0 size=       1KiB time=00:00:03.78 bitrate=   1.2kbits/s speed=0.0256x elapsed=0:02:27.90    \nframe=  457 fps=3.1 q=42.0 size=       1KiB time=00:00:03.80 bitrate=   1.2kbits/s speed=0.0256x elapsed=0:02:28.43    \nframe=  461 fps=3.1 q=55.0 size=       1KiB time=00:00:03.83 bitrate=   1.2kbits/s speed=0.0257x elapsed=0:02:28.95    \nframe=  464 fps=3.1 q=50.0 size=       1KiB time=00:00:03.85 bitrate=   1.2kbits/s speed=0.0258x elapsed=0:02:29.45    \nframe=  465 fps=3.1 q=36.0 size=       1KiB time=00:00:03.86 bitrate=   1.2kbits/s speed=0.0258x elapsed=0:02:29.97    \nframe=  469 fps=3.1 q=55.0 size=       1KiB time=00:00:03.90 bitrate=   1.1kbits/s speed=0.0259x elapsed=0:02:30.50    \nframe=  471 fps=3.1 q=51.0 size=       1KiB time=00:00:03.91 bitrate=   1.1kbits/s speed=0.0259x elapsed=0:02:31.00    \nframe=  473 fps=3.1 q=49.0 size=       1KiB time=00:00:03.94 bitrate=   1.1kbits/s speed=0.026x elapsed=0:02:31.52    \nframe=  476 fps=3.1 q=49.0 size=       1KiB time=00:00:03.95 bitrate=   1.1kbits/s speed=0.026x elapsed=0:02:32.03    \nframe=  479 fps=3.1 q=51.0 size=       1KiB time=00:00:03.98 bitrate=   1.1kbits/s speed=0.0261x elapsed=0:02:32.55    \nframe=  481 fps=3.1 q=38.0 size=       1KiB time=00:00:04.00 bitrate=   1.1kbits/s speed=0.0261x elapsed=0:02:33.07    \nframe=  485 fps=3.2 q=54.0 size=       1KiB time=00:00:04.03 bitrate=   1.1kbits/s speed=0.0263x elapsed=0:02:33.59    \nframe=  486 fps=3.2 q=50.0 size=       1KiB time=00:00:04.04 bitrate=   1.1kbits/s speed=0.0262x elapsed=0:02:34.11    \nframe=  490 fps=3.2 q=50.0 size=       1KiB time=00:00:04.07 bitrate=   1.1kbits/s speed=0.0264x elapsed=0:02:34.63    \nframe=  493 fps=3.2 q=54.0 size=       1KiB time=00:00:04.10 bitrate=   1.1kbits/s speed=0.0264x elapsed=0:02:35.15    \nframe=  496 fps=3.2 q=51.0 size=       1KiB time=00:00:04.12 bitrate=   1.1kbits/s speed=0.0265x elapsed=0:02:35.66    \nframe=  497 fps=3.2 q=38.0 size=       1KiB time=00:00:04.13 bitrate=   1.1kbits/s speed=0.0265x elapsed=0:02:36.17    \nframe=  499 fps=3.2 q=53.0 size=       1KiB time=00:00:04.15 bitrate=   1.1kbits/s speed=0.0265x elapsed=0:02:36.69    \nframe=  501 fps=3.2 q=55.0 size=       1KiB time=00:00:04.16 bitrate=   1.1kbits/s speed=0.0265x elapsed=0:02:37.21    \nframe=  505 fps=3.2 q=43.0 size=       1KiB time=00:00:04.20 bitrate=   1.1kbits/s speed=0.0266x elapsed=0:02:37.72    \nframe=  507 fps=3.2 q=53.0 size=       1KiB time=00:00:04.21 bitrate=   1.1kbits/s speed=0.0266x elapsed=0:02:38.24    \nframe=  509 fps=3.2 q=55.0 size=       1KiB time=00:00:04.23 bitrate=   1.1kbits/s speed=0.0267x elapsed=0:02:38.76    \nframe=  511 fps=3.2 q=52.0 size=       1KiB time=00:00:04.25 bitrate=   1.1kbits/s speed=0.0267x elapsed=0:02:39.27    \nframe=  517 fps=3.2 q=54.0 size=       1KiB time=00:00:04.30 bitrate=   1.0kbits/s speed=0.0269x elapsed=0:02:39.79    \nframe=  519 fps=3.2 q=52.0 size=       1KiB time=00:00:04.31 bitrate=   1.0kbits/s speed=0.0269x elapsed=0:02:40.29    \nframe=  521 fps=3.2 q=42.0 size=       1KiB time=00:00:04.33 bitrate=   1.0kbits/s speed=0.0269x elapsed=0:02:40.82    \nframe=  523 fps=3.2 q=52.0 size=       1KiB time=00:00:04.35 bitrate=   1.0kbits/s speed=0.027x elapsed=0:02:41.34    \nframe=  525 fps=3.2 q=54.0 size=       1KiB time=00:00:04.36 bitrate=   1.0kbits/s speed=0.027x elapsed=0:02:41.85    \nframe=  525 fps=3.2 q=54.0 size=       1KiB time=00:00:04.36 bitrate=   1.0kbits/s speed=0.0269x elapsed=0:02:42.36    \nframe=  527 fps=3.2 q=52.0 size=       1KiB time=00:00:04.38 bitrate=   1.0kbits/s speed=0.0269x elapsed=0:02:42.88    \nframe=  529 fps=3.2 q=37.0 size=       1KiB time=00:00:04.40 bitrate=   1.0kbits/s speed=0.0269x elapsed=0:02:43.39    \nframe=  533 fps=3.3 q=54.0 size=       1KiB time=00:00:04.43 bitrate=   1.0kbits/s speed=0.027x elapsed=0:02:43.91    \nframe=  537 fps=3.3 q=42.0 size=       1KiB time=00:00:04.46 bitrate=   1.0kbits/s speed=0.0272x elapsed=0:02:44.42    \nframe=  537 fps=3.3 q=42.0 size=       1KiB time=00:00:04.46 bitrate=   1.0kbits/s speed=0.0271x elapsed=0:02:44.95    \nframe=  541 fps=3.3 q=53.0 size=       1KiB time=00:00:04.50 bitrate=   1.0kbits/s speed=0.0272x elapsed=0:02:45.46    \nframe=  543 fps=3.3 q=50.0 size=       1KiB time=00:00:04.51 bitrate=   1.0kbits/s speed=0.0272x elapsed=0:02:45.97    \nframe=  545 fps=3.3 q=37.0 size=       1KiB time=00:00:04.53 bitrate=   1.0kbits/s speed=0.0272x elapsed=0:02:46.49    \nframe=  547 fps=3.3 q=50.0 size=       1KiB time=00:00:04.55 bitrate=   1.0kbits/s speed=0.0272x elapsed=0:02:47.00    \nframe=  549 fps=3.3 q=53.0 size=       1KiB time=00:00:04.56 bitrate=   1.0kbits/s speed=0.0273x elapsed=0:02:47.52    \nframe=  553 fps=3.3 q=42.0 size=       1KiB time=00:00:04.60 bitrate=   1.0kbits/s speed=0.0274x elapsed=0:02:48.03    \nframe=  553 fps=3.3 q=42.0 size=       1KiB time=00:00:04.60 bitrate=   1.0kbits/s speed=0.0273x elapsed=0:02:48.55    \nframe=  553 fps=3.3 q=42.0 size=       1KiB time=00:00:04.60 bitrate=   1.0kbits/s speed=0.0272x elapsed=0:02:49.06    \nframe=  557 fps=3.3 q=52.0 size=       1KiB time=00:00:04.63 bitrate=   1.0kbits/s speed=0.0273x elapsed=0:02:49.57    \nframe=  557 fps=3.3 q=52.0 size=       1KiB time=00:00:04.63 bitrate=   1.0kbits/s speed=0.0272x elapsed=0:02:50.09    \nframe=  561 fps=3.3 q=38.0 size=       1KiB time=00:00:04.66 bitrate=   1.0kbits/s speed=0.0274x elapsed=0:02:50.61    \nframe=  565 fps=3.3 q=53.0 size=       1KiB time=00:00:04.70 bitrate=   1.0kbits/s speed=0.0275x elapsed=0:02:51.13    \nframe=  565 fps=3.3 q=53.0 size=       1KiB time=00:00:04.70 bitrate=   1.0kbits/s speed=0.0274x elapsed=0:02:51.66    \nframe=  567 fps=3.3 q=51.0 size=       1KiB time=00:00:04.71 bitrate=   0.9kbits/s speed=0.0274x elapsed=0:02:52.22    \nframe=  569 fps=3.3 q=42.0 size=       1KiB time=00:00:04.73 bitrate=   0.9kbits/s speed=0.0274x elapsed=0:02:52.75    \nframe=  569 fps=3.3 q=42.0 size=       1KiB time=00:00:04.73 bitrate=   0.9kbits/s speed=0.0273x elapsed=0:02:53.26    \nframe=  571 fps=3.3 q=51.0 size=       1KiB time=00:00:04.75 bitrate=   0.9kbits/s speed=0.0273x elapsed=0:02:53.80    \nframe=  575 fps=3.3 q=52.0 size=       1KiB time=00:00:04.78 bitrate=   0.9kbits/s speed=0.0274x elapsed=0:02:54.34    \nframe=  577 fps=3.3 q=38.0 size=       1KiB time=00:00:04.80 bitrate=   0.9kbits/s speed=0.0275x elapsed=0:02:54.86    \nframe=  581 fps=3.3 q=52.0 size=       1KiB time=00:00:04.83 bitrate=   0.9kbits/s speed=0.0276x elapsed=0:02:55.38    \nframe=  581 fps=3.3 q=52.0 size=       1KiB time=00:00:04.83 bitrate=   0.9kbits/s speed=0.0275x elapsed=0:02:55.91    \nframe=  581 fps=3.3 q=52.0 size=       1KiB time=00:00:04.83 bitrate=   0.9kbits/s speed=0.0274x elapsed=0:02:56.47    \nframe=  583 fps=3.3 q=49.0 size=       1KiB time=00:00:04.85 bitrate=   0.9kbits/s speed=0.0274x elapsed=0:02:57.01    \nframe=  585 fps=3.3 q=47.0 size=       1KiB time=00:00:04.86 bitrate=   0.9kbits/s speed=0.0274x elapsed=0:02:57.62    \nframe=  585 fps=3.3 q=47.0 size=       1KiB time=00:00:04.86 bitrate=   0.9kbits/s speed=0.0273x elapsed=0:02:58.16    \nframe=  589 fps=3.3 q=52.0 size=       1KiB time=00:00:04.90 bitrate=   0.9kbits/s speed=0.0274x elapsed=0:02:58.69    \nframe=  591 fps=3.3 q=49.0 size=       1KiB time=00:00:04.91 bitrate=   0.9kbits/s speed=0.0274x elapsed=0:02:59.28    \n[out#0/matroska @ 000002dfdf1990c0] video:783KiB audio:0KiB subtitle:0KiB other streams:0KiB global headers:0KiB muxing overhead: 0.412263%\nframe=  600 fps=3.3 q=60.0 Lsize=     786KiB time=00:00:04.99 bitrate=1289.7kbits/s speed=0.0278x elapsed=0:02:59.50    \n",
  "seconds": 181.32765817642212,
  "probe_out": {}
}